# xmcd
#
# Track frame offsets:
#	150
#	19782
#	34585
#	43635
#	61485
#	70725
#	86037
#	97367
#	115262
#	129555
#	143892
#	163425
#	178552
#
# Disc length: 2620 seconds
#
# Revision: 1
# Processed by: cddbd v1.5.2PL0 Copyright (c) Steve Scherf et al.
# Submitted via: audiograbber 1.83.01
#
DISCID=bc0a3a0d
DTITLE=Rieserferner - Adler
DYEAR=1900
DGENRE=Volksmusik
TTITLE0=Adler
TTITLE1=Wenn I jodeln will
TTITLE2=Auf und nieder
TTITLE3=Mein kleiner Freund
TTITLE4=Ohne Kua bist koa Bauer
TTITLE5=Madlan schaun
TTITLE6=Zigeunernacht
TTITLE7=Bergwind
TTITLE8=It's cool man
TTITLE9=Die Musik taugt uns
TTITLE10=Freundschaft ist wie a Feuer
TTITLE11=I will hoam
TTITLE12=Servus
EXTD=
EXTT0=
EXTT1=
EXTT2=
EXTT3=
EXTT4=
EXTT5=
EXTT6=
EXTT7=
EXTT8=
EXTT9=
EXTT10=
EXTT11=
EXTT12=
PLAYORDER=
